<svg width="15" height="16" viewBox="0 0 15 16" fill="none" xmlns="http://www.w3.org/2000/svg">
<path d="M4.56885 1.53845C6.18268 0.423123 7.49814 0.249595 9.27979 1.07068C11.7571 2.21242 13.251 4.87859 14.1392 8.23376C15.537 13.5145 10.6625 16.0002 6.37354 16.0004C4.94641 16.0004 3.60861 15.6154 2.45947 14.9437C-2.06633 12.2982 0.256247 4.51899 4.56885 1.53845ZM10.7339 8.2699C10.4853 8.2699 10.2865 8.47298 10.2515 8.71912C10.1927 9.13255 10.0525 9.5318 9.8374 9.89294C9.54521 10.3835 9.12585 10.786 8.62354 11.057C8.12134 11.3279 7.55508 11.4572 6.98486 11.432C6.56515 11.4135 6.15445 11.312 5.77686 11.1342C5.55181 11.0282 5.27284 11.0825 5.13623 11.2904C5.00012 11.4979 5.05685 11.7791 5.27783 11.892C5.79443 12.1557 6.3632 12.3066 6.9458 12.3324C7.67844 12.3648 8.40603 12.1981 9.05127 11.85C9.69654 11.5018 10.2355 10.9851 10.6108 10.3549C10.9093 9.85378 11.0953 9.29571 11.1587 8.71912C11.1858 8.47235 10.9821 8.27003 10.7339 8.2699ZM6.86572 4.21521L6.86475 4.21228C6.69188 4.20713 6.29725 4.27069 5.98584 4.37146C5.94791 4.38255 5.9092 4.39246 5.87158 4.40466C5.83433 4.41679 5.80121 4.43468 5.771 4.45544C5.7138 4.48254 5.66409 4.50945 5.62744 4.53943C5.39038 4.7335 5.30578 5.07815 5.30225 5.35681C5.29875 5.63536 5.42775 5.9039 5.65967 6.10388C5.89174 6.3039 6.38849 6.46393 6.72021 6.46814L6.72119 6.46326C6.74917 6.46236 6.77747 6.46053 6.80518 6.45544C7.07359 6.40623 7.35197 6.42315 7.61572 6.5072C8.00452 6.63113 8.3349 6.89238 8.54443 7.24255C8.75397 7.59273 8.82799 8.00736 8.75342 8.40857C8.67883 8.80975 8.46051 9.16979 8.13916 9.42126C7.81777 9.67273 7.41566 9.79888 7.0083 9.77478C6.60097 9.75066 6.21673 9.57798 5.92725 9.29041C5.63775 9.00275 5.46277 8.61951 5.43604 8.21228C5.4179 7.93597 5.46914 7.66122 5.58154 7.41248C5.67002 7.21618 5.64348 6.97188 5.47314 6.84021C5.30261 6.70853 5.05386 6.73904 4.95068 6.9281C4.72977 7.33389 4.6262 7.79677 4.65674 8.26306C4.68135 8.63809 4.79241 8.99933 4.97607 9.32068L3.52881 10.4242C3.31822 10.5847 3.22812 10.8585 3.30225 11.1127L3.31201 11.1459C3.36869 11.3402 3.52271 11.4912 3.71826 11.5433C3.91962 11.5969 4.13486 11.5378 4.28076 11.389L5.60303 10.0404C5.99267 10.3429 6.46538 10.5247 6.9624 10.5541C7.55958 10.5894 8.14945 10.4051 8.62061 10.0365C9.09175 9.6678 9.41164 9.13934 9.521 8.55115C9.63028 7.96308 9.52139 7.35547 9.21436 6.84216C8.90716 6.3288 8.423 5.94477 7.85303 5.76306C7.61244 5.68639 7.36326 5.64859 7.11475 5.64783L7.1167 5.64587C7.00866 5.6445 6.33978 5.67651 6.26221 5.61169C6.20888 5.60989 6.13996 5.50729 6.14111 5.41638C6.14232 5.32555 6.2181 5.28826 6.29541 5.22498C6.36845 5.16583 6.94405 5.11242 7.10693 5.10681C7.11279 5.10678 7.11865 5.10681 7.12451 5.10681C7.57357 5.1068 8.01824 5.20221 8.42725 5.38708C8.83608 5.57196 9.20123 5.8422 9.49756 6.17908C9.69429 6.40281 9.85775 6.65294 9.98389 6.92126C10.0897 7.14631 10.3389 7.28211 10.5767 7.20935C10.8142 7.1364 10.9505 6.8828 10.8521 6.65466C10.6838 6.26498 10.4548 5.90339 10.1733 5.58337C9.79254 5.15048 9.32374 4.80329 8.79834 4.5658C8.27312 4.32843 7.7031 4.20645 7.12646 4.20642C7.03946 4.20642 6.9523 4.20965 6.86572 4.21521ZM4.46436 5.81677C4.28158 5.64799 3.99465 5.6584 3.84717 5.85876C3.50293 6.32644 3.26137 6.86379 3.14209 7.43591C3.02275 8.00857 3.02878 8.59905 3.15771 9.16638C3.21277 9.40854 3.47185 9.53272 3.70654 9.45154C3.9415 9.3702 4.06254 9.1136 4.01514 8.86951C3.93534 8.45838 3.93795 8.03416 4.02393 7.62146C4.10993 7.20875 4.27688 6.81865 4.51416 6.474C4.65523 6.2691 4.64709 5.98557 4.46436 5.81677Z" fill="#1437FF"/>
</svg>
