<svg width="235" height="235" viewBox="0 0 235 235" fill="none" xmlns="http://www.w3.org/2000/svg">
<path d="M98.7718 76.1043C96.869 72.1484 98.5253 67.3312 102.733 66.0786C111.752 63.3934 121.403 63.2929 130.564 65.8748C142.291 69.18 152.408 76.6535 159.013 86.8913C165.619 97.1291 168.259 109.427 166.438 121.474C164.617 133.521 158.46 144.488 149.123 152.316C139.786 160.144 127.912 164.293 115.732 163.984C103.552 163.675 91.9039 158.929 82.9759 150.638C74.0479 142.347 68.4545 131.082 67.2464 118.958C66.3027 109.487 68.0858 100.001 72.3037 91.589C74.2712 87.6649 79.3036 86.8746 82.8667 89.4386V89.4386C86.4299 92.0025 87.1377 96.9541 85.4662 101.013C83.3496 106.153 82.5057 111.771 83.0648 117.381C83.8888 125.651 87.7039 133.335 93.7933 138.99C99.8828 144.645 107.828 147.882 116.135 148.092C124.443 148.303 132.542 145.473 138.91 140.134C145.278 134.795 149.478 127.314 150.72 119.098C151.962 110.881 150.162 102.493 145.656 95.5101C141.15 88.5272 134.25 83.4298 126.251 81.1754C120.824 79.6459 115.145 79.4965 109.715 80.6837C105.427 81.6213 100.675 80.0602 98.7718 76.1043V76.1043Z" fill="#1437FF"/>
<path d="M76.7871 138.532C80.5005 135.413 85.9749 135.621 89.4399 139.014V139.014C93.0912 142.59 93.2272 148.424 89.7463 152.165L54.3432 190.219C51.6481 193.116 47.694 194.491 43.783 193.891V193.891C39.0508 193.166 35.2082 189.686 34.0181 185.049L33.8301 184.317C32.5781 179.438 34.2351 174.273 38.092 171.034L76.7871 138.532Z" fill="#1437FF"/>
<path d="M109.401 34.9997C104.188 35.0174 89.131 38.3987 84.4398 42.5112C79.7486 46.6238 78.2709 53.6864 78.3906 59.36C78.5103 65.0335 81.3081 70.4181 86.1686 74.3291C91.0291 78.2402 101.246 81.1425 108 81L115.5 63.9994C113.297 64.0459 99.6721 65.1571 98.0865 63.8812C97 63.8812 95.539 61.8506 95.5 59.9997C95.4609 58.1489 96.9696 57.3413 98.5 55.9997C100.03 54.6581 113.297 53.0462 115.5 52.9997L109.401 34.9997Z" fill="#1437FF"/>
<path d="M84.9362 51.3884C82.7052 46.8502 84.5603 41.3101 89.315 39.5883C97.4529 36.6414 106.019 34.9822 114.703 34.6884C126.443 34.2913 138.13 36.3988 148.986 40.8708C159.842 45.3427 169.619 52.0766 177.666 60.6246C183.616 66.9449 188.52 74.15 192.213 81.9665C194.374 86.5415 191.784 91.782 187 93.43V93.43C182.208 95.0808 177.042 92.4897 174.732 87.9782C171.978 82.6006 168.475 77.6246 164.313 73.2044C158.049 66.5501 150.438 61.308 141.987 57.8268C133.536 54.3456 124.438 52.705 115.299 53.0141C109.223 53.2196 103.222 54.2837 97.4701 56.1624C92.6562 57.7347 87.1704 55.933 84.9362 51.3884V51.3884Z" fill="#1437FF"/>
<path d="M190.917 114.923C195.971 114.752 200.261 118.719 199.879 123.761C198.986 135.54 195.58 147.026 189.85 157.43C182.645 170.514 172.033 181.397 159.14 188.926C146.247 196.455 131.555 200.348 116.621 200.193C104.747 200.069 93.0724 197.39 82.3776 192.378C77.7986 190.232 76.4531 184.547 79.0859 180.229V180.229C81.7231 175.904 87.3514 174.607 92.0042 176.609C99.8125 179.97 108.236 181.764 116.792 181.853C128.417 181.974 139.855 178.943 149.891 173.082C159.928 167.221 168.189 158.749 173.798 148.564C177.927 141.066 180.506 132.846 181.418 124.392C181.961 119.357 185.856 115.094 190.917 114.923V114.923Z" fill="#1437FF"/>
<path d="M48.7191 143.791C43.9986 145.605 38.6479 143.259 37.361 138.368C34.3457 126.91 33.8155 114.904 35.8508 103.166C37.8844 91.4378 42.4184 80.3265 49.104 70.5699C51.968 66.3904 57.8091 65.9888 61.6448 69.2989V69.2989C65.4797 72.6084 65.8419 78.3716 63.1119 82.6384C58.5195 89.816 55.382 97.8625 53.9153 106.321C52.4482 114.783 52.6935 123.423 54.6017 131.738C55.7344 136.674 53.4463 141.975 48.7191 143.791V143.791Z" fill="#1437FF"/>
</svg>
