<svg width="754" height="235" viewBox="0 0 754 235" fill="none" xmlns="http://www.w3.org/2000/svg">
<path d="M98.7718 76.1043C96.869 72.1484 98.5253 67.3312 102.733 66.0786C111.752 63.3934 121.403 63.2929 130.564 65.8748C142.291 69.18 152.408 76.6535 159.013 86.8913C165.619 97.1291 168.259 109.427 166.438 121.474C164.617 133.521 158.46 144.488 149.123 152.316C139.786 160.144 127.912 164.293 115.732 163.984C103.552 163.675 91.9039 158.929 82.9759 150.638C74.0479 142.347 68.4545 131.082 67.2464 118.958C66.3027 109.487 68.0858 100.001 72.3037 91.589C74.2712 87.6649 79.3036 86.8746 82.8667 89.4386V89.4386C86.4299 92.0025 87.1377 96.9541 85.4662 101.013C83.3496 106.153 82.5057 111.771 83.0648 117.381C83.8888 125.651 87.7039 133.335 93.7933 138.99C99.8828 144.645 107.828 147.882 116.135 148.092C124.443 148.303 132.542 145.473 138.91 140.134C145.278 134.795 149.478 127.314 150.72 119.098C151.962 110.881 150.162 102.493 145.656 95.5101C141.15 88.5272 134.25 83.4298 126.251 81.1754C120.824 79.6459 115.145 79.4965 109.715 80.6837C105.427 81.6213 100.675 80.0602 98.7718 76.1043V76.1043Z" fill="#1437FF"/>
<path d="M76.7871 138.532C80.5005 135.413 85.9749 135.621 89.4399 139.014V139.014C93.0912 142.59 93.2272 148.424 89.7463 152.165L54.3432 190.219C51.6481 193.116 47.694 194.491 43.783 193.891V193.891C39.0508 193.166 35.2082 189.686 34.0181 185.049L33.8301 184.317C32.5781 179.438 34.2351 174.273 38.092 171.034L76.7871 138.532Z" fill="#1437FF"/>
<path d="M109.401 34.9997C104.188 35.0174 89.131 38.3987 84.4398 42.5112C79.7486 46.6238 78.2709 53.6864 78.3906 59.36C78.5103 65.0335 81.3081 70.4181 86.1686 74.3291C91.0291 78.2402 101.246 81.1425 108 81L115.5 63.9994C113.297 64.0459 99.6721 65.1571 98.0865 63.8812C97 63.8812 95.539 61.8506 95.5 59.9997C95.4609 58.1489 96.9696 57.3413 98.5 55.9997C100.03 54.6581 113.297 53.0462 115.5 52.9997L109.401 34.9997Z" fill="#1437FF"/>
<path d="M84.9362 51.3884C82.7052 46.8502 84.5603 41.3101 89.315 39.5883C97.4529 36.6414 106.019 34.9822 114.703 34.6884C126.443 34.2913 138.13 36.3988 148.986 40.8708C159.842 45.3427 169.619 52.0766 177.666 60.6246C183.616 66.9449 188.52 74.15 192.213 81.9665C194.374 86.5415 191.784 91.782 187 93.43V93.43C182.208 95.0808 177.042 92.4897 174.732 87.9782C171.978 82.6006 168.475 77.6246 164.313 73.2044C158.049 66.5501 150.438 61.308 141.987 57.8268C133.536 54.3456 124.438 52.705 115.299 53.0141C109.223 53.2196 103.222 54.2837 97.4701 56.1624C92.6562 57.7347 87.1704 55.933 84.9362 51.3884V51.3884Z" fill="#1437FF"/>
<path d="M190.917 114.923C195.971 114.752 200.261 118.719 199.879 123.761C198.986 135.54 195.58 147.026 189.85 157.43C182.645 170.514 172.033 181.397 159.14 188.926C146.247 196.455 131.555 200.348 116.621 200.193C104.747 200.069 93.0724 197.39 82.3776 192.378C77.7986 190.232 76.4531 184.547 79.0859 180.229V180.229C81.7231 175.904 87.3514 174.607 92.0042 176.609C99.8125 179.97 108.236 181.764 116.792 181.853C128.417 181.974 139.855 178.943 149.891 173.082C159.928 167.221 168.189 158.749 173.798 148.564C177.927 141.066 180.506 132.846 181.418 124.392C181.961 119.357 185.856 115.094 190.917 114.923V114.923Z" fill="#1437FF"/>
<path d="M48.7191 143.791C43.9986 145.605 38.6479 143.259 37.361 138.368C34.3457 126.91 33.8155 114.904 35.8508 103.166C37.8844 91.4378 42.4184 80.3265 49.104 70.5699C51.968 66.3904 57.8091 65.9888 61.6448 69.2989V69.2989C65.4797 72.6084 65.8419 78.3716 63.1119 82.6384C58.5195 89.816 55.382 97.8625 53.9153 106.321C52.4482 114.783 52.6935 123.423 54.6017 131.738C55.7344 136.674 53.4463 141.975 48.7191 143.791V143.791Z" fill="#1437FF"/>
<path d="M289.536 80.6C296.384 80.6 302.24 83.032 307.104 87.896C311.968 92.76 314.4 98.616 314.4 105.464V143H299.136V105.464C299.136 102.776 298.208 100.504 296.352 98.648C294.496 96.792 292.224 95.864 289.536 95.864C286.912 95.864 284.672 96.792 282.816 98.648C280.96 100.504 280.032 102.776 280.032 105.464V143H264.768V105.464C264.768 102.776 263.84 100.504 261.984 98.648C260.128 96.792 257.856 95.864 255.168 95.864C252.544 95.864 250.304 96.792 248.448 98.648C246.592 100.504 245.664 102.776 245.664 105.464V143H230.4V105.464C230.4 98.616 232.832 92.76 237.696 87.896C242.56 83.032 248.384 80.6 255.168 80.6C261.824 80.6 267.552 82.936 272.352 87.608C277.216 82.936 282.944 80.6 289.536 80.6ZM321.485 82.232H336.749V143H321.485V82.232ZM372.734 80.792C380.734 80.792 387.55 83.768 393.182 89.72C398.814 95.608 401.63 102.744 401.63 111.128V143H386.462V129.272H359.102V143H343.838V111.128C343.838 102.744 346.654 95.608 352.286 89.72C357.982 83.768 364.798 80.792 372.734 80.792ZM359.102 114.104H386.462V111.128C386.462 106.968 385.118 103.416 382.43 100.472C379.742 97.464 376.51 95.96 372.734 95.96C368.958 95.96 365.726 97.464 363.038 100.472C360.414 103.416 359.102 106.968 359.102 111.128V114.104ZM405.503 143.096V82.424H420.767V143.096H405.503ZM442.079 110.936L446.015 122.168C447.359 126.008 449.535 127.928 452.542 127.928H462.239V143.096H452.542C448.063 143.096 443.839 141.56 439.871 138.488C435.967 135.416 433.247 131.704 431.711 127.352L424.607 107L443.231 82.424H462.239L442.079 110.936ZM499.784 82.712C506.184 82.712 511.624 85.08 516.104 89.816C520.392 94.488 522.536 100.056 522.536 106.52C522.536 112.92 520.392 118.456 516.104 123.128C511.624 127.864 506.184 130.232 499.784 130.232H481.16V143H466.088V82.712H499.784ZM499.784 115.16C501.96 115.16 503.784 114.264 505.256 112.472C506.728 110.68 507.464 108.696 507.464 106.52C507.464 104.28 506.728 102.264 505.256 100.472C503.784 98.68 501.96 97.784 499.784 97.784H481.16V115.16H499.784ZM558.602 80.888C567.306 80.888 574.666 84.056 580.682 90.392C586.762 96.664 589.802 104.184 589.802 112.952C589.802 121.656 586.762 129.176 580.682 135.512C574.666 141.848 567.306 145.016 558.602 145.016C549.898 145.016 542.506 141.848 536.426 135.512C530.346 129.176 527.306 121.656 527.306 112.952C527.306 104.184 530.346 96.664 536.426 90.392C542.506 84.056 549.898 80.888 558.602 80.888ZM558.602 129.848C563.082 129.848 566.89 128.184 570.026 124.856C573.162 121.464 574.73 117.496 574.73 112.952C574.73 108.344 573.162 104.376 570.026 101.048C566.89 97.656 563.082 95.96 558.602 95.96C554.058 95.96 550.218 97.656 547.082 101.048C543.946 104.376 542.378 108.344 542.378 112.952C542.378 117.496 543.946 121.464 547.082 124.856C550.218 128.184 554.058 129.848 558.602 129.848ZM654.734 82.232C662.734 82.232 669.55 85.208 675.182 91.16C680.814 97.112 683.63 104.28 683.63 112.664C683.63 121.048 680.814 128.216 675.182 134.168C669.55 140.056 662.734 143 654.734 143H625.838V82.232H654.734ZM654.734 127.736C658.51 127.736 661.742 126.264 664.43 123.32C667.118 120.376 668.462 116.824 668.462 112.664C668.462 108.504 667.118 104.952 664.43 102.008C661.742 99 658.51 97.496 654.734 97.496H641.102V127.736H654.734ZM719.759 80.888C728.463 80.888 735.823 84.056 741.839 90.392C747.919 96.664 750.959 104.184 750.959 112.952C750.959 121.656 747.919 129.176 741.839 135.512C735.823 141.848 728.463 145.016 719.759 145.016C711.055 145.016 703.663 141.848 697.583 135.512C691.503 129.176 688.463 121.656 688.463 112.952C688.463 104.184 691.503 96.664 697.583 90.392C703.663 84.056 711.055 80.888 719.759 80.888ZM719.759 129.848C724.239 129.848 728.047 128.184 731.183 124.856C734.319 121.464 735.887 117.496 735.887 112.952C735.887 108.344 734.319 104.376 731.183 101.048C728.047 97.656 724.239 95.96 719.759 95.96C715.215 95.96 711.375 97.656 708.239 101.048C705.103 104.376 703.535 108.344 703.535 112.952C703.535 117.496 705.103 121.464 708.239 124.856C711.375 128.184 715.215 129.848 719.759 129.848Z" fill="#0B097E"/>
</svg>
