<svg width="120" height="120" viewBox="0 0 120 120" fill="none" xmlns="http://www.w3.org/2000/svg">
<rect width="120" height="120" rx="30" fill="white"/>
<path d="M52.0441 42.3521C51.2311 40.6619 51.9388 38.6036 53.7364 38.0684C57.59 36.9211 61.7135 36.8782 65.6276 37.9814C70.6382 39.3936 74.9606 42.5868 77.7831 46.9611C80.6055 51.3354 81.7336 56.5897 80.9554 61.7371C80.1773 66.8844 77.5465 71.5705 73.5572 74.9151C69.5679 78.2596 64.4947 80.0323 59.2906 79.9003C54.0866 79.7683 49.1098 77.7406 45.2952 74.1981C41.4806 70.6557 39.0907 65.8422 38.5746 60.662C38.1713 56.6154 38.9332 52.5625 40.7353 48.9683C41.576 47.2916 43.7262 46.9539 45.2486 48.0495V48.0495C46.771 49.1449 47.0734 51.2605 46.3592 52.9948C45.4549 55.1908 45.0943 57.5913 45.3331 59.9885C45.6852 63.5218 47.3152 66.8049 49.917 69.2211C52.5188 71.6373 55.9133 73.0203 59.4629 73.1103C63.0124 73.2004 66.4726 71.9912 69.1936 69.7101C71.9145 67.4289 73.7089 64.2326 74.2397 60.7218C74.7704 57.211 74.001 53.6272 72.0759 50.6436C70.1509 47.66 67.2026 45.4821 63.7851 44.5188C61.4664 43.8653 59.0399 43.8015 56.7199 44.3087C54.8876 44.7093 52.8572 44.0423 52.0441 42.3521V42.3521Z" fill="#1437FF"/>
<path d="M42.6348 68.9716C44.2431 67.6578 46.5827 67.766 48.0628 69.2228V69.2228C49.6241 70.7596 49.6883 73.2566 48.2081 74.8716L36.2201 87.951C34.9952 89.2874 33.1462 89.862 31.3796 89.4552V89.4552C29.6625 89.0597 28.2772 87.7953 27.7271 86.1213L27.6329 85.8348C26.9137 83.6463 27.6161 81.2409 29.4001 79.7835L42.6348 68.9716Z" fill="#1437FF"/>
<path d="M56.5856 24.7894C54.3584 24.7969 47.925 26.2416 45.9206 27.9988C43.9162 29.756 43.2849 32.7736 43.336 35.1978C43.3871 37.6219 44.5826 39.9226 46.6592 41.5936C48.7359 43.2647 53.1012 44.5048 55.987 44.4439L59.1914 37.1801C58.25 37.1999 52.4288 37.6747 51.7513 37.1295C51.2871 37.1295 50.6629 36.2619 50.6462 35.4711C50.6295 34.6803 51.2741 34.3353 51.928 33.762C52.5819 33.1888 58.25 32.5001 59.1914 32.4802L56.5856 24.7894Z" fill="#1437FF"/>
<path d="M46.1327 31.7916C45.1795 29.8526 45.9721 27.4855 48.0036 26.7498C51.4806 25.4907 55.1406 24.7817 58.8511 24.6562C63.867 24.4866 68.8602 25.387 73.4986 27.2978C78.137 29.2085 82.3143 32.0857 85.7526 35.738C88.295 38.4385 90.3902 41.517 91.968 44.8567C92.8915 46.8115 91.7846 49.0506 89.7406 49.7547V49.7547C87.6931 50.4601 85.486 49.3529 84.499 47.4253C83.3225 45.1276 81.8254 43.0015 80.0475 41.1129C77.3708 38.2697 74.119 36.03 70.5082 34.5426C66.8974 33.0551 63.0104 32.3541 59.1056 32.4862C56.5097 32.574 53.9455 33.0287 51.488 33.8314C49.4312 34.5032 47.0873 33.7334 46.1327 31.7916V31.7916Z" fill="#1437FF"/>
<path d="M91.4145 58.938C93.5738 58.8651 95.4067 60.5598 95.2433 62.7142C94.8616 67.7471 93.4066 72.6548 90.9585 77.1C87.8799 82.6901 83.3458 87.3403 77.8372 90.5572C72.3286 93.774 66.051 95.4376 59.6705 95.3712C54.597 95.3184 49.609 94.1735 45.0395 92.0321C43.0831 91.1152 42.5083 88.686 43.6331 86.8413V86.8413C44.7599 84.9934 47.1647 84.4391 49.1526 85.2947C52.4888 86.7306 56.0877 87.4971 59.7435 87.5351C64.7105 87.5868 69.5973 86.2918 73.8856 83.7876C78.1738 81.2834 81.7035 77.6634 84.1001 73.3117C85.8643 70.1081 86.9661 66.596 87.3556 62.9836C87.5876 60.8323 89.252 59.0111 91.4145 58.938V58.938Z" fill="#1437FF"/>
<path d="M30.6585 71.2725C28.6416 72.0474 26.3555 71.0449 25.8056 68.9554C24.5173 64.0595 24.2908 58.9298 25.1604 53.9145C26.0293 48.9035 27.9665 44.156 30.823 39.9873C32.0467 38.2015 34.5423 38.0299 36.1812 39.4442V39.4442C37.8197 40.8583 37.9744 43.3207 36.808 45.1438C34.8459 48.2105 33.5053 51.6485 32.8787 55.2627C32.2518 58.878 32.3567 62.5696 33.1719 66.1225C33.6559 68.2314 32.6783 70.4966 30.6585 71.2725V71.2725Z" fill="#1437FF"/>
</svg>
