<svg width="521" height="66" viewBox="0 0 521 66" fill="none" xmlns="http://www.w3.org/2000/svg">
<path d="M59.536 0.599997C66.384 0.599997 72.24 3.032 77.104 7.896C81.968 12.76 84.4 18.616 84.4 25.464V63H69.136V25.464C69.136 22.776 68.208 20.504 66.352 18.648C64.496 16.792 62.224 15.864 59.536 15.864C56.912 15.864 54.672 16.792 52.816 18.648C50.96 20.504 50.032 22.776 50.032 25.464V63H34.768V25.464C34.768 22.776 33.84 20.504 31.984 18.648C30.128 16.792 27.856 15.864 25.168 15.864C22.544 15.864 20.304 16.792 18.448 18.648C16.592 20.504 15.664 22.776 15.664 25.464V63H0.4V25.464C0.4 18.616 2.832 12.76 7.696 7.896C12.56 3.032 18.384 0.599997 25.168 0.599997C31.824 0.599997 37.552 2.936 42.352 7.608C47.216 2.936 52.944 0.599997 59.536 0.599997ZM91.4853 2.232H106.749V63H91.4853V2.232ZM142.734 0.792C150.734 0.792 157.55 3.768 163.182 9.72C168.814 15.608 171.63 22.744 171.63 31.128V63H156.462V49.272H129.102V63H113.838V31.128C113.838 22.744 116.654 15.608 122.286 9.72C127.982 3.768 134.798 0.792 142.734 0.792ZM129.102 34.104H156.462V31.128C156.462 26.968 155.118 23.416 152.43 20.472C149.742 17.464 146.51 15.96 142.734 15.96C138.958 15.96 135.726 17.464 133.038 20.472C130.414 23.416 129.102 26.968 129.102 31.128V34.104ZM175.503 63.096V2.424H190.767V63.096H175.503ZM212.079 30.936L216.015 42.168C217.359 46.008 219.535 47.928 222.542 47.928H232.239V63.096H222.542C218.063 63.096 213.839 61.56 209.871 58.488C205.967 55.416 203.247 51.704 201.711 47.352L194.607 27L213.231 2.424H232.239L212.079 30.936ZM269.784 2.712C276.184 2.712 281.624 5.08 286.104 9.816C290.392 14.488 292.536 20.056 292.536 26.52C292.536 32.92 290.392 38.456 286.104 43.128C281.624 47.864 276.184 50.232 269.784 50.232H251.16V63H236.088V2.712H269.784ZM269.784 35.16C271.96 35.16 273.784 34.264 275.256 32.472C276.728 30.68 277.464 28.696 277.464 26.52C277.464 24.28 276.728 22.264 275.256 20.472C273.784 18.68 271.96 17.784 269.784 17.784H251.16V35.16H269.784ZM328.602 0.887999C337.306 0.887999 344.666 4.056 350.682 10.392C356.762 16.664 359.802 24.184 359.802 32.952C359.802 41.656 356.762 49.176 350.682 55.512C344.666 61.848 337.306 65.016 328.602 65.016C319.898 65.016 312.506 61.848 306.426 55.512C300.346 49.176 297.306 41.656 297.306 32.952C297.306 24.184 300.346 16.664 306.426 10.392C312.506 4.056 319.898 0.887999 328.602 0.887999ZM328.602 49.848C333.082 49.848 336.89 48.184 340.026 44.856C343.162 41.464 344.73 37.496 344.73 32.952C344.73 28.344 343.162 24.376 340.026 21.048C336.89 17.656 333.082 15.96 328.602 15.96C324.058 15.96 320.218 17.656 317.082 21.048C313.946 24.376 312.378 28.344 312.378 32.952C312.378 37.496 313.946 41.464 317.082 44.856C320.218 48.184 324.058 49.848 328.602 49.848ZM424.734 2.232C432.734 2.232 439.55 5.208 445.182 11.16C450.814 17.112 453.63 24.28 453.63 32.664C453.63 41.048 450.814 48.216 445.182 54.168C439.55 60.056 432.734 63 424.734 63H395.838V2.232H424.734ZM424.734 47.736C428.51 47.736 431.742 46.264 434.43 43.32C437.118 40.376 438.462 36.824 438.462 32.664C438.462 28.504 437.118 24.952 434.43 22.008C431.742 19 428.51 17.496 424.734 17.496H411.102V47.736H424.734ZM489.759 0.887999C498.463 0.887999 505.823 4.056 511.839 10.392C517.919 16.664 520.959 24.184 520.959 32.952C520.959 41.656 517.919 49.176 511.839 55.512C505.823 61.848 498.463 65.016 489.759 65.016C481.055 65.016 473.663 61.848 467.583 55.512C461.503 49.176 458.463 41.656 458.463 32.952C458.463 24.184 461.503 16.664 467.583 10.392C473.663 4.056 481.055 0.887999 489.759 0.887999ZM489.759 49.848C494.239 49.848 498.047 48.184 501.183 44.856C504.319 41.464 505.887 37.496 505.887 32.952C505.887 28.344 504.319 24.376 501.183 21.048C498.047 17.656 494.239 15.96 489.759 15.96C485.215 15.96 481.375 17.656 478.239 21.048C475.103 24.376 473.535 28.344 473.535 32.952C473.535 37.496 475.103 41.464 478.239 44.856C481.375 48.184 485.215 49.848 489.759 49.848Z" fill="#0B097E"/>
</svg>
