<svg width="66" height="15" viewBox="0 0 66 15" fill="none" xmlns="http://www.w3.org/2000/svg">
<path d="M3.192 11H0.56L1.806 3.062C1.988 1.942 2.772 1.34 3.906 1.34C4.886 1.34 5.712 1.76 5.978 2.81L7.266 7.822L8.54 2.852C8.806 1.802 9.66 1.34 10.668 1.34C11.774 1.34 12.53 1.956 12.698 3.104L13.818 11H11.2L10.444 4.336L8.946 9.796C8.708 10.636 8.05 11.042 7.266 11.042C6.496 11.042 5.796 10.65 5.586 9.852L4.102 4.322L3.192 11ZM15.9228 3.258C15.0968 3.258 14.4108 2.572 14.4108 1.746C14.4108 0.92 15.0968 0.233999 15.9228 0.233999C16.7488 0.233999 17.4348 0.92 17.4348 1.746C17.4348 2.572 16.7488 3.258 15.9228 3.258ZM14.6628 4H17.1828V11H14.6628V4ZM21.3172 11.21C19.2732 11.21 17.8872 9.53 17.8872 7.486C17.8872 5.456 19.5532 3.776 21.7372 3.776C23.9772 3.776 25.5872 5.344 25.5872 7.486V11H23.2072V10.482C22.7592 10.944 22.1292 11.21 21.3172 11.21ZM21.7372 8.844C22.5352 8.844 23.0672 8.228 23.0672 7.5C23.0672 6.758 22.5352 6.142 21.7372 6.142C20.9392 6.142 20.4072 6.758 20.4072 7.5C20.4072 8.228 20.9392 8.844 21.7372 8.844ZM29.0855 11H26.5655V0.78H29.0855V6.562H29.5755C29.6315 6.45 29.6875 6.338 29.7715 6.24L31.4375 4H34.4195L31.7175 7.472L34.4055 11H31.4515L29.7715 8.69C29.7015 8.592 29.6315 8.48 29.5895 8.382H29.0855V11ZM37.0059 14.22H34.4859V7.486C34.4859 5.344 36.0959 3.79 38.3359 3.79C40.5199 3.79 42.1859 5.456 42.1859 7.486C42.1859 9.726 40.7019 11.21 38.4759 11.21C37.9579 11.21 37.4399 11.056 37.0059 10.818V14.22ZM38.3359 8.844C39.1339 8.844 39.6659 8.228 39.6659 7.5C39.6659 6.758 39.1339 6.156 38.3359 6.156C37.5379 6.156 37.0059 6.758 37.0059 7.5C37.0059 8.228 37.5379 8.844 38.3359 8.844ZM46.1743 11.21C43.9903 11.21 42.3243 9.53 42.3243 7.486C42.3243 5.456 43.9903 3.776 46.1743 3.776C48.3583 3.776 50.0243 5.456 50.0243 7.486C50.0243 9.53 48.3583 11.21 46.1743 11.21ZM46.1743 8.844C46.9723 8.844 47.5043 8.228 47.5043 7.5C47.5043 6.758 46.9723 6.142 46.1743 6.142C45.3763 6.142 44.8443 6.758 44.8443 7.5C44.8443 8.228 45.3763 8.844 46.1743 8.844Z" fill="#0B097E"/>
<path d="M54.0192 11.21C51.8352 11.21 50.1692 9.544 50.1692 7.514C50.1692 5.274 51.6532 3.79 53.8792 3.79C54.3972 3.79 54.9152 3.944 55.3492 4.182V0.78H57.8692V7.514C57.8692 9.656 56.2592 11.21 54.0192 11.21ZM54.0192 8.844C54.8172 8.844 55.3492 8.242 55.3492 7.5C55.3492 6.772 54.8172 6.156 54.0192 6.156C53.2212 6.156 52.6892 6.772 52.6892 7.5C52.6892 8.242 53.2212 8.844 54.0192 8.844ZM62.1376 11.21C59.9536 11.21 58.2876 9.53 58.2876 7.486C58.2876 5.456 59.9536 3.776 62.1376 3.776C64.3216 3.776 65.9876 5.456 65.9876 7.486C65.9876 9.53 64.3216 11.21 62.1376 11.21ZM62.1376 8.844C62.9356 8.844 63.4676 8.228 63.4676 7.5C63.4676 6.758 62.9356 6.142 62.1376 6.142C61.3396 6.142 60.8076 6.758 60.8076 7.5C60.8076 8.228 61.3396 8.844 62.1376 8.844Z" fill="#1437FF"/>
</svg>
