<svg width="82" height="20" viewBox="0 0 82 20" fill="none" xmlns="http://www.w3.org/2000/svg">
<path d="M19.192 15H16.56L17.806 7.062C17.988 5.942 18.772 5.34 19.906 5.34C20.886 5.34 21.712 5.76 21.978 6.81L23.266 11.822L24.54 6.852C24.806 5.802 25.66 5.34 26.668 5.34C27.774 5.34 28.53 5.956 28.698 7.104L29.818 15H27.2L26.444 8.336L24.946 13.796C24.708 14.636 24.05 15.042 23.266 15.042C22.496 15.042 21.796 14.65 21.586 13.852L20.102 8.322L19.192 15ZM31.9228 7.258C31.0968 7.258 30.4108 6.572 30.4108 5.746C30.4108 4.92 31.0968 4.234 31.9228 4.234C32.7488 4.234 33.4348 4.92 33.4348 5.746C33.4348 6.572 32.7488 7.258 31.9228 7.258ZM30.6628 8H33.1828V15H30.6628V8ZM37.3172 15.21C35.2732 15.21 33.8872 13.53 33.8872 11.486C33.8872 9.456 35.5532 7.776 37.7372 7.776C39.9772 7.776 41.5872 9.344 41.5872 11.486V15H39.2072V14.482C38.7592 14.944 38.1292 15.21 37.3172 15.21ZM37.7372 12.844C38.5352 12.844 39.0672 12.228 39.0672 11.5C39.0672 10.758 38.5352 10.142 37.7372 10.142C36.9392 10.142 36.4072 10.758 36.4072 11.5C36.4072 12.228 36.9392 12.844 37.7372 12.844ZM45.0855 15H42.5655V4.78H45.0855V10.562H45.5755C45.6315 10.45 45.6875 10.338 45.7715 10.24L47.4375 8H50.4195L47.7175 11.472L50.4055 15H47.4515L45.7715 12.69C45.7015 12.592 45.6315 12.48 45.5895 12.382H45.0855V15ZM53.0059 18.22H50.4859V11.486C50.4859 9.344 52.0959 7.79 54.3359 7.79C56.5199 7.79 58.1859 9.456 58.1859 11.486C58.1859 13.726 56.7019 15.21 54.4759 15.21C53.9579 15.21 53.4399 15.056 53.0059 14.818V18.22ZM54.3359 12.844C55.1339 12.844 55.6659 12.228 55.6659 11.5C55.6659 10.758 55.1339 10.156 54.3359 10.156C53.5379 10.156 53.0059 10.758 53.0059 11.5C53.0059 12.228 53.5379 12.844 54.3359 12.844ZM62.1743 15.21C59.9903 15.21 58.3243 13.53 58.3243 11.486C58.3243 9.456 59.9903 7.776 62.1743 7.776C64.3583 7.776 66.0243 9.456 66.0243 11.486C66.0243 13.53 64.3583 15.21 62.1743 15.21ZM62.1743 12.844C62.9723 12.844 63.5043 12.228 63.5043 11.5C63.5043 10.758 62.9723 10.142 62.1743 10.142C61.3763 10.142 60.8443 10.758 60.8443 11.5C60.8443 12.228 61.3763 12.844 62.1743 12.844ZM70.0192 15.21C67.8352 15.21 66.1692 13.544 66.1692 11.514C66.1692 9.274 67.6532 7.79 69.8792 7.79C70.3972 7.79 70.9152 7.944 71.3492 8.182V4.78H73.8692V11.514C73.8692 13.656 72.2592 15.21 70.0192 15.21ZM70.0192 12.844C70.8172 12.844 71.3492 12.242 71.3492 11.5C71.3492 10.772 70.8172 10.156 70.0192 10.156C69.2212 10.156 68.6892 10.772 68.6892 11.5C68.6892 12.242 69.2212 12.844 70.0192 12.844ZM78.1376 15.21C75.9536 15.21 74.2876 13.53 74.2876 11.486C74.2876 9.456 75.9536 7.776 78.1376 7.776C80.3216 7.776 81.9876 9.456 81.9876 11.486C81.9876 13.53 80.3216 15.21 78.1376 15.21ZM78.1376 12.844C78.9356 12.844 79.4676 12.228 79.4676 11.5C79.4676 10.758 78.9356 10.142 78.1376 10.142C77.3396 10.142 76.8076 10.758 76.8076 11.5C76.8076 12.228 77.3396 12.844 78.1376 12.844Z" fill="#0B097E"/>
<path d="M4.56812 2.53833C6.18195 1.423 7.49741 1.25045 9.27905 2.07153C11.7562 3.21326 13.2503 5.87861 14.1384 9.23364C15.5363 14.5145 10.6619 17.0002 6.3728 17.0002C4.94584 17.0002 3.60877 16.6152 2.45972 15.9436C-2.06608 13.2981 0.255586 5.51893 4.56812 2.53833ZM10.7332 9.27075C10.4846 9.27078 10.2869 9.473 10.2517 9.71899C10.193 10.1323 10.0526 10.5318 9.83765 10.8928C9.54546 11.3834 9.12512 11.7859 8.6228 12.0569C8.12056 12.3278 7.55438 12.4581 6.98413 12.4329C6.56432 12.4143 6.15379 12.3119 5.77612 12.134C5.55115 12.0281 5.2731 12.0825 5.13647 12.2903C5.00019 12.4977 5.05628 12.7788 5.2771 12.8918C5.79362 13.1555 6.36255 13.3065 6.94507 13.3323C7.67767 13.3647 8.40532 13.1979 9.05054 12.8499C9.69581 12.5017 10.2348 11.9849 10.6101 11.3547C10.9086 10.8536 11.0946 10.2956 11.158 9.71899C11.1851 9.47216 10.9815 9.27075 10.7332 9.27075ZM6.86597 5.21606L6.86499 5.21216C6.69119 5.20687 6.29181 5.27129 5.97925 5.37329C5.94348 5.38381 5.90732 5.39303 5.87183 5.40454C5.83511 5.41645 5.80211 5.43403 5.77222 5.45435C5.71419 5.48171 5.66375 5.50996 5.62671 5.54028C5.39002 5.73441 5.30604 6.07822 5.30249 6.35669C5.29896 6.63535 5.42687 6.90472 5.65894 7.10474C5.89098 7.30471 6.38777 7.46376 6.71948 7.46802L6.72046 7.46313C6.74852 7.46225 6.77666 7.46042 6.80444 7.45532C7.07284 7.40607 7.35124 7.42307 7.61499 7.50708C8.00374 7.63096 8.33414 7.89235 8.5437 8.24243C8.7532 8.59253 8.82815 9.00732 8.75366 9.40845C8.67907 9.80969 8.45984 10.1706 8.13843 10.4221C7.81709 10.6734 7.41477 10.7988 7.00757 10.7747C6.60026 10.7505 6.21596 10.5779 5.92651 10.2903C5.63709 10.0026 5.46203 9.61934 5.4353 9.21216C5.41721 8.93602 5.46852 8.66195 5.58081 8.41333C5.66958 8.21688 5.64304 7.97184 5.47241 7.84009C5.30178 7.70843 5.05301 7.73966 4.94995 7.92896C4.72915 8.33474 4.62638 8.79767 4.65698 9.26392C4.68165 9.63866 4.79185 9.99941 4.97534 10.3206L3.52808 11.4241C3.31759 11.5845 3.22747 11.8584 3.30151 12.1125L3.31128 12.1458C3.36798 12.3402 3.5228 12.4911 3.71851 12.5432C3.91978 12.5967 4.1342 12.5376 4.28003 12.3889L5.60229 11.0403C5.99199 11.3429 6.46453 11.5245 6.96167 11.554C7.55896 11.5893 8.14864 11.4051 8.61987 11.0364C9.09107 10.6677 9.41188 10.1393 9.52124 9.55103C9.63045 8.96295 9.52072 8.35532 9.21362 7.84204C8.90638 7.3286 8.42239 6.94461 7.85229 6.76294C7.61163 6.68625 7.36261 6.64843 7.11401 6.64771L7.11597 6.64575C7.00781 6.64438 6.33778 6.67668 6.26147 6.61157C6.20815 6.60977 6.1402 6.50717 6.14136 6.41626C6.14266 6.32556 6.21742 6.2881 6.29468 6.22485C6.3674 6.1656 6.94514 6.11217 7.10718 6.10669C7.11296 6.10666 7.11897 6.10669 7.12476 6.10669C7.57374 6.10671 8.01757 6.20212 8.42651 6.38696C8.83548 6.57184 9.20042 6.84199 9.49683 7.17896C9.69363 7.40272 9.85698 7.65277 9.98315 7.92114C10.089 8.1464 10.339 8.2823 10.5769 8.20923C10.8142 8.13622 10.9495 7.8835 10.8513 7.65552C10.683 7.26575 10.4542 6.90333 10.1726 6.58325C9.79185 6.15048 9.32291 5.8041 8.79761 5.56665C8.27228 5.32923 7.70249 5.20629 7.12573 5.2063C7.03894 5.2063 6.95234 5.21053 6.86597 5.21606ZM4.46362 6.81665C4.28084 6.64811 3.99385 6.65837 3.84644 6.85864C3.50214 7.32641 3.26061 7.86453 3.14136 8.43677C3.02212 9.00927 3.02906 9.5991 3.15796 10.1663C3.213 10.4084 3.47115 10.5325 3.70581 10.4514C3.94084 10.3701 4.06181 10.1135 4.0144 9.86938C3.93464 9.4583 3.93722 9.034 4.02319 8.62134C4.1092 8.20864 4.27616 7.81853 4.51343 7.47388C4.65449 7.26898 4.64635 6.98544 4.46362 6.81665Z" fill="#1437FF"/>
</svg>
